<?xml version="1.0" standalone="no"?>
<!DOCTYPE svg PUBLIC "-//W3C//DTD SVG 20010904//EN"
 "http://www.w3.org/TR/2001/REC-SVG-20010904/DTD/svg10.dtd">
<svg version="1.0" xmlns="http://www.w3.org/2000/svg"
 width="600.000000pt" height="600.000000pt" viewBox="0 0 600.000000 600.000000"
 preserveAspectRatio="xMidYMid meet">
<g transform="translate(0.000000,600.000000) scale(0.100000,-0.100000)"
fill="#000000" stroke="none">
<path d="M2790 5085 c-158 -29 -339 -108 -471 -206 -85 -63 -223 -207 -277
-289 -187 -285 -240 -628 -146 -959 25 -89 106 -266 144 -314 l22 -28 19 20
c58 62 159 14 159 -74 0 -41 26 -81 64 -99 68 -32 210 -15 317 39 140 71 232
253 289 569 12 61 34 246 51 411 35 353 54 450 110 563 73 149 207 263 328
279 22 3 41 9 41 13 0 12 -150 60 -238 75 -97 18 -314 17 -412 0z"/>
<path d="M3385 4796 c-131 -61 -206 -228 -234 -521 -6 -60 -18 -184 -26 -275
-63 -672 -239 -979 -604 -1051 l-64 -12 46 -23 c25 -13 79 -35 120 -49 338
-113 691 -73 987 113 393 247 599 703 525 1161 -35 213 -135 425 -271 570
l-52 56 -11 -26 c-19 -51 -83 -74 -132 -49 -11 6 -29 31 -40 56 -13 26 -34 51
-50 59 -44 23 -135 19 -194 -9z"/>
<path d="M848 2690 c-137 -73 -139 -292 -2 -357 19 -9 33 -22 30 -28 -2 -6
-74 -111 -159 -233 l-156 -222 32 -24 c119 -91 409 -244 603 -320 387 -150
786 -239 1289 -288 206 -20 859 -17 1070 6 592 62 1094 200 1535 420 137 68
329 184 337 203 2 6 -67 113 -154 237 l-158 226 -1717 0 -1716 0 -44 33 c-127
96 -114 276 27 350 28 15 0 16 -375 16 -382 0 -407 -1 -442 -19z"/>
</g>
</svg>
